<svg width="20" height="20" viewBox="0 0 20 20" fill="none" xmlns="http://www.w3.org/2000/svg">
<path d="M6.96721 0.658267C4.9689 1.3515 3.24556 2.66728 2.05032 4.41233C0.855082 6.15739 0.250946 8.23974 0.326651 10.3535C0.402355 12.4673 1.15391 14.5011 2.47092 16.1562C3.78794 17.8113 5.60099 19.0004 7.64377 19.5489C9.2999 19.9762 11.035 19.995 12.7 19.6036C14.2083 19.2648 15.6028 18.5401 16.7469 17.5005C17.9376 16.3854 18.802 14.9668 19.2469 13.3973C19.7305 11.6906 19.8166 9.89566 19.4985 8.15045H10.1985V12.0083H15.5844C15.4768 12.6236 15.2461 13.2108 14.9062 13.7349C14.5663 14.2589 14.1242 14.7091 13.6063 15.0583C12.9486 15.4933 12.2072 15.786 11.4297 15.9176C10.6499 16.0626 9.85011 16.0626 9.07033 15.9176C8.28 15.7542 7.53236 15.428 6.87502 14.9598C5.819 14.2123 5.02608 13.1503 4.6094 11.9255C4.18567 10.6776 4.18567 9.32484 4.6094 8.07702C4.906 7.20235 5.39632 6.40598 6.04377 5.74733C6.7847 4.97975 7.72273 4.43108 8.75495 4.16151C9.78718 3.89195 10.8737 3.91191 11.8953 4.2192C12.6934 4.46419 13.4232 4.89223 14.0266 5.4692C14.6339 4.86504 15.2401 4.25931 15.8453 3.65202C16.1578 3.32545 16.4985 3.01452 16.8063 2.68014C15.8853 1.82307 14.8042 1.15617 13.625 0.717642C11.4777 -0.0620611 9.12811 -0.0830148 6.96721 0.658267Z" fill="white"/>
<path d="M6.96709 0.659027C9.12781 -0.0827593 11.4774 -0.0623571 13.6249 0.716839C14.8043 1.15834 15.8849 1.82846 16.8046 2.68871C16.4921 3.02309 16.1624 3.33559 15.8437 3.66059C15.2374 4.2658 14.6317 4.86892 14.0265 5.46996C13.4231 4.89299 12.6933 4.46495 11.8952 4.21996C10.8739 3.91159 9.78743 3.89048 8.75493 4.15894C7.72243 4.4274 6.78383 4.97506 6.04209 5.74184C5.39464 6.40049 4.90432 7.19686 4.60771 8.07153L1.36865 5.56371C2.52804 3.26459 4.53545 1.50594 6.96709 0.659027Z" fill="#E33629"/>
<path d="M0.509175 8.04688C0.683271 7.18405 0.972306 6.34848 1.36855 5.5625L4.60761 8.07656C4.18389 9.32438 4.18389 10.6772 4.60761 11.925C3.52845 12.7583 2.44876 13.5958 1.36855 14.4375C0.376598 12.463 0.07407 10.2133 0.509175 8.04688Z" fill="#F8BD00"/>
<path d="M10.1984 8.14844H19.4984C19.8166 9.89365 19.7305 11.6885 19.2469 13.3953C18.8019 14.9648 17.9376 16.3834 16.7469 17.4984C15.7016 16.6828 14.6516 15.8734 13.6063 15.0578C14.1245 14.7082 14.5668 14.2576 14.9067 13.733C15.2467 13.2084 15.4771 12.6205 15.5844 12.0047H10.1984C10.1969 10.7203 10.1984 9.43438 10.1984 8.14844Z" fill="#587DBD"/>
<path d="M1.36719 14.4383C2.4474 13.6049 3.52708 12.7674 4.60625 11.9258C5.02376 13.1511 5.81782 14.2131 6.875 14.9602C7.53439 15.4262 8.28364 15.7497 9.075 15.9102C9.85478 16.0551 10.6546 16.0551 11.4344 15.9102C12.2119 15.7785 12.9533 15.4858 13.6109 15.0508C14.6562 15.8664 15.7063 16.6758 16.7516 17.4914C15.6076 18.5316 14.2132 19.2568 12.7047 19.5961C11.0397 19.9875 9.30457 19.9687 7.64844 19.5414C6.3386 19.1917 5.11512 18.5751 4.05469 17.7305C2.93228 16.8394 2.01556 15.7164 1.36719 14.4383Z" fill="#319F43"/>
</svg>
