<svg width="20" height="20" viewBox="0 0 20 20" fill="none" xmlns="http://www.w3.org/2000/svg">
<path d="M8.55667 17.5013C8.70295 17.7546 8.91335 17.965 9.1667 18.1113C9.42006 18.2576 9.70745 18.3346 10 18.3346C10.2925 18.3346 10.5799 18.2576 10.8333 18.1113C11.0867 17.965 11.297 17.7546 11.4433 17.5013M2.71833 12.773C2.60947 12.8923 2.53763 13.0407 2.51155 13.2001C2.48547 13.3595 2.50627 13.523 2.57142 13.6708C2.63658 13.8186 2.74328 13.9443 2.87855 14.0325C3.01381 14.1208 3.17182 14.1679 3.33333 14.168H16.6667C16.8282 14.168 16.9862 14.1212 17.1216 14.0331C17.2569 13.945 17.3637 13.8194 17.4291 13.6717C17.4944 13.524 17.5154 13.3605 17.4895 13.2011C17.4637 13.0417 17.392 12.8933 17.2833 12.7738C16.175 11.6313 15 10.4171 15 6.66797C15 5.34189 14.4732 4.07012 13.5355 3.13243C12.5979 2.19475 11.3261 1.66797 10 1.66797C8.67392 1.66797 7.40215 2.19475 6.46447 3.13243C5.52679 4.07012 5 5.34189 5 6.66797C5 10.4171 3.82417 11.6313 2.71833 12.773Z" fill="#222222"/>
<path d="M8.55667 17.5013C8.70295 17.7546 8.91335 17.965 9.1667 18.1113C9.42006 18.2576 9.70745 18.3346 10 18.3346C10.2925 18.3346 10.5799 18.2576 10.8333 18.1113C11.0867 17.965 11.297 17.7546 11.4433 17.5013M2.71833 12.773C2.60947 12.8923 2.53763 13.0407 2.51155 13.2001C2.48547 13.3595 2.50627 13.523 2.57142 13.6708C2.63658 13.8186 2.74328 13.9443 2.87855 14.0325C3.01381 14.1208 3.17182 14.1679 3.33333 14.168H16.6667C16.8282 14.168 16.9862 14.1212 17.1216 14.0331C17.2569 13.945 17.3637 13.8194 17.4291 13.6717C17.4944 13.524 17.5154 13.3605 17.4895 13.2011C17.4637 13.0417 17.392 12.8933 17.2833 12.7738C16.175 11.6313 15 10.4171 15 6.66797C15 5.34189 14.4732 4.07012 13.5355 3.13243C12.5979 2.19475 11.3261 1.66797 10 1.66797C8.67392 1.66797 7.40215 2.19475 6.46447 3.13243C5.52679 4.07012 5 5.34189 5 6.66797C5 10.4171 3.82417 11.6313 2.71833 12.773Z" stroke="#222222" stroke-width="2" stroke-linecap="round" stroke-linejoin="round"/>
</svg>
