<svg width="116" height="20" viewBox="0 0 116 20" fill="none" xmlns="http://www.w3.org/2000/svg">
<path d="M7.336 18.636C7.168 18.692 7.00933 18.7387 6.86 18.776C6.72933 18.8133 6.58 18.832 6.412 18.832C6.03867 18.832 5.63733 18.7387 5.208 18.552C4.79733 18.3653 4.48933 18.104 4.284 17.768C4.19067 17.6187 4.116 17.4787 4.06 17.348C4.02267 17.2173 3.976 17.0587 3.92 16.872C3.60267 16.8533 3.28533 16.788 2.968 16.676C2.65067 16.564 2.38933 16.3773 2.184 16.116C2.09067 16.0227 2.016 15.9107 1.96 15.78C1.904 15.6307 1.86667 15.4813 1.848 15.332C1.77333 15.0893 1.708 14.8653 1.652 14.66C1.61467 14.4547 1.596 14.1653 1.596 13.792C1.596 13.7547 1.60533 13.68 1.624 13.568C1.64267 13.456 1.652 13.3813 1.652 13.344L1.708 13.12V13.036C1.39067 12.868 1.18533 12.6347 1.092 12.336C0.998667 12.0187 0.952 11.7013 0.952 11.384C0.952 11.1227 0.998667 10.852 1.092 10.572C1.204 10.292 1.29733 10.0213 1.372 9.76V9.704C1.204 9.40533 1.064 9.15333 0.952 8.948C0.858667 8.74267 0.812 8.46267 0.812 8.108C0.812 7.58533 0.961333 7.11867 1.26 6.708C1.57733 6.27867 1.97867 5.96133 2.464 5.756C2.59467 5.68133 2.744 5.63467 2.912 5.616C3.09867 5.57867 3.28533 5.54133 3.472 5.504C3.39733 4.96267 3.416 4.51467 3.528 4.16C3.64 3.78667 3.808 3.488 4.032 3.264C4.27467 3.04 4.55467 2.88133 4.872 2.788C5.18933 2.69467 5.52533 2.648 5.88 2.648C6.16 2.648 6.412 2.71333 6.636 2.844C6.86 2.956 7.10267 3.11467 7.364 3.32C7.68133 2.66667 8.02667 2.2 8.4 1.92C8.792 1.64 9.36133 1.5 10.108 1.5C10.556 1.5 10.9013 1.556 11.144 1.668C11.3867 1.78 11.564 1.91067 11.676 2.06C11.8067 2.20933 11.8813 2.34933 11.9 2.48C11.9373 2.61067 11.9747 2.704 12.012 2.76C12.292 2.66667 12.5627 2.61067 12.824 2.592C13.104 2.55467 13.3653 2.536 13.608 2.536C13.888 2.536 14.168 2.62 14.448 2.788C14.7467 2.93733 15.0173 3.14267 15.26 3.404C15.5027 3.64667 15.6987 3.92667 15.848 4.244C15.9973 4.54267 16.072 4.84133 16.072 5.14C16.072 5.51333 16.0253 5.91467 15.932 6.344C15.8573 6.75467 15.6987 7.13733 15.456 7.492C15.2133 7.828 14.868 8.11733 14.42 8.36C13.9907 8.584 13.412 8.696 12.684 8.696C12.3293 8.696 11.956 8.62133 11.564 8.472C11.1907 8.32267 10.8827 8.12667 10.64 7.884C10.3227 8.42533 9.83733 8.752 9.184 8.864C9.09067 8.88267 8.99733 8.90133 8.904 8.92C8.81067 8.92 8.71733 8.92 8.624 8.92C8.53067 8.92 8.456 8.92 8.4 8.92C8.344 8.92 8.24133 8.91067 8.092 8.892C8.07333 8.892 7.98933 8.87333 7.84 8.836C7.69067 8.78 7.60667 8.752 7.588 8.752H7.56C7.56 9.032 7.48533 9.38667 7.336 9.816C7.20533 10.2453 7.06533 10.6 6.916 10.88C6.86 10.9173 6.76667 11.0387 6.636 11.244C6.50533 11.4493 6.42133 11.5707 6.384 11.608L6.412 11.692L7.028 12.028C7.34533 12.2893 7.54133 12.5973 7.616 12.952C7.69067 13.3067 7.728 13.6613 7.728 14.016C7.87733 14.016 8.01733 14.0067 8.148 13.988C8.27867 13.9693 8.43733 13.96 8.624 13.96H9.1C9.268 13.9973 9.42667 14.0533 9.576 14.128C9.72533 14.2027 9.87467 14.2773 10.024 14.352C10.1547 14.128 10.3507 13.9787 10.612 13.904C10.892 13.8293 11.1533 13.7733 11.396 13.736C11.4333 13.736 11.536 13.7173 11.704 13.68C11.8907 13.6427 12.012 13.624 12.068 13.624V13.428C12.068 13.3907 12.0493 13.316 12.012 13.204C11.9933 13.0733 11.984 12.9893 11.984 12.952C11.9653 12.784 11.844 12.7 11.62 12.7C11.4147 12.6813 11.2467 12.6253 11.116 12.532C10.9107 12.4573 10.7427 12.2893 10.612 12.028C10.5 11.7667 10.4253 11.4867 10.388 11.188C10.3693 11.0387 10.3693 10.8893 10.388 10.74C10.4067 10.5907 10.4627 10.4693 10.556 10.376C10.668 10.1893 10.864 10.0307 11.144 9.9C11.4427 9.76933 11.7693 9.65733 12.124 9.564C12.4787 9.47067 12.8333 9.40533 13.188 9.368C13.5427 9.312 13.8507 9.284 14.112 9.284C14.7467 9.284 15.2693 9.47067 15.68 9.844C16.0907 10.2173 16.296 10.7307 16.296 11.384V11.608C16.2773 11.6453 16.268 11.6827 16.268 11.72V11.888L16.212 12.028C16.3613 12.084 16.492 12.1493 16.604 12.224C16.6973 12.28 16.7907 12.336 16.884 12.392C16.9773 12.4293 17.0427 12.4667 17.08 12.504C17.4533 12.8213 17.64 13.232 17.64 13.736C17.64 13.9787 17.5933 14.184 17.5 14.352C17.4253 14.52 17.3227 14.6693 17.192 14.8C17.08 14.9307 16.9493 15.052 16.8 15.164C16.6507 15.2573 16.5107 15.3693 16.38 15.5C16.4173 15.6307 16.4453 15.752 16.464 15.864C16.4827 15.9573 16.492 16.0787 16.492 16.228C16.492 16.9373 16.268 17.5347 15.82 18.02C15.3907 18.5053 14.812 18.748 14.084 18.748C13.4307 18.748 12.8333 18.6173 12.292 18.356L12.264 18.384C12.0027 18.72 11.7227 19 11.424 19.224C11.1253 19.4667 10.7427 19.588 10.276 19.588H10.08C10.0613 19.588 10.0053 19.5787 9.912 19.56C9.83733 19.56 9.744 19.5507 9.632 19.532C9.52 19.532 9.408 19.5227 9.296 19.504C9.184 19.4853 9.1 19.4667 9.044 19.448C8.72667 19.4107 8.428 19.3173 8.148 19.168C7.868 19.0187 7.60667 18.8413 7.364 18.636H7.336ZM20.1703 17.32C20.1703 17.264 20.1796 17.208 20.1983 17.152C20.2169 17.1147 20.2263 17.0773 20.2263 17.04C20.2263 16.984 20.2356 16.9373 20.2543 16.9C20.3103 16.788 20.3383 16.704 20.3383 16.648C19.7969 16.1067 19.5263 15.4813 19.5263 14.772C19.5263 14.4547 19.5729 14.1747 19.6663 13.932C19.7596 13.6893 19.9369 13.4373 20.1983 13.176C19.9929 12.9707 19.8249 12.7653 19.6943 12.56C19.5823 12.336 19.5263 12.056 19.5263 11.72C19.5263 11.5147 19.5636 11.3 19.6383 11.076C19.7316 10.8333 19.8343 10.6187 19.9463 10.432C19.8343 10.2267 19.7223 10.0213 19.6103 9.816C19.4983 9.61067 19.4423 9.37733 19.4423 9.116C19.4423 8.74267 19.5356 8.43467 19.7223 8.192C19.9276 7.94933 20.2169 7.8 20.5903 7.744C20.6649 7.27733 20.8236 6.94133 21.0663 6.736C21.3276 6.512 21.7289 6.4 22.2703 6.4C22.6063 6.4 22.8956 6.44667 23.1383 6.54C23.3809 6.63333 23.5863 6.75467 23.7543 6.904C23.9223 7.05333 24.0623 7.23067 24.1743 7.436C24.2863 7.64133 24.3889 7.856 24.4823 8.08C24.7249 7.94933 24.9489 7.87467 25.1543 7.856C25.3783 7.83733 25.6676 7.828 26.0223 7.828C26.1903 7.41733 26.4329 7.13733 26.7503 6.988C27.0676 6.83867 27.4503 6.764 27.8983 6.764C28.0663 6.764 28.2249 6.82933 28.3743 6.96C28.5236 7.072 28.6823 7.128 28.8503 7.128C28.9809 7.128 29.1116 7.11867 29.2423 7.1C29.3729 7.06267 29.5129 7.044 29.6623 7.044C30.4089 7.044 30.9969 7.25867 31.4263 7.688C31.8743 8.11733 32.0049 8.64933 31.8183 9.284C31.9116 9.35867 32.0049 9.48 32.0983 9.648C32.1916 9.816 32.2569 10.096 32.2943 10.488C32.2943 11.216 32.1169 11.7853 31.7623 12.196C31.4076 12.588 30.8383 12.784 30.0543 12.784C29.9236 12.784 29.7649 12.756 29.5783 12.7C29.4103 12.644 29.2703 12.588 29.1583 12.532C28.7103 12.8867 28.2436 13.064 27.7583 13.064C27.4223 13.064 27.1049 13.008 26.8063 12.896C26.5263 12.784 26.3116 12.5693 26.1623 12.252C26.1063 12.2893 25.9663 12.3547 25.7423 12.448C25.5183 12.5227 25.2569 12.5133 24.9583 12.42C24.9209 12.7 24.8649 12.9427 24.7903 13.148C24.7343 13.3533 24.6503 13.5867 24.5383 13.848C24.7623 14.1093 24.9396 14.3613 25.0703 14.604C25.2009 14.8467 25.2663 15.1267 25.2663 15.444C25.2663 15.8547 25.2103 16.1253 25.0983 16.256C25.0049 16.368 24.8836 16.4707 24.7343 16.564C24.6596 16.6013 24.5943 16.6387 24.5383 16.676C24.4823 16.6947 24.4356 16.7413 24.3983 16.816C24.3796 17.3013 24.2583 17.712 24.0343 18.048C23.8289 18.3653 23.4836 18.6173 22.9983 18.804C22.9609 18.8227 22.9049 18.8413 22.8303 18.86C22.7743 18.8787 22.7089 18.888 22.6343 18.888C22.5783 18.888 22.5223 18.888 22.4663 18.888C22.2423 18.888 21.9903 18.86 21.7103 18.804C21.4489 18.748 21.1969 18.664 20.9543 18.552C20.7303 18.4213 20.5436 18.2627 20.3943 18.076C20.2449 17.8707 20.1703 17.6187 20.1703 17.32ZM68.5915 17.656C68.3861 18.048 68.1341 18.3467 67.8355 18.552C67.5368 18.7573 67.2101 18.8693 66.8555 18.888C66.3141 18.9067 65.8288 18.7387 65.3995 18.384C64.9888 18.0293 64.7741 17.516 64.7555 16.844C64.3261 16.9 63.9621 16.8813 63.6635 16.788C63.3648 16.676 63.1128 16.536 62.9075 16.368C62.7208 16.1813 62.5808 15.9853 62.4875 15.78C62.3941 15.556 62.3381 15.36 62.3195 15.192C62.1888 15.472 62.0488 15.6307 61.8995 15.668C61.7688 15.7053 61.6941 15.7333 61.6755 15.752C61.7128 15.9013 61.7315 16.0413 61.7315 16.172C61.7315 16.284 61.7315 16.4333 61.7315 16.62C61.7315 17.1987 61.5261 17.6747 61.1155 18.048C60.7235 18.4027 60.2475 18.58 59.6875 18.58C59.4821 18.58 59.3141 18.552 59.1835 18.496C58.9968 18.4213 58.8475 18.384 58.7355 18.384C58.6608 18.384 58.5115 18.4493 58.2875 18.58C58.1568 18.6547 58.0168 18.7293 57.8675 18.804C57.7181 18.8787 57.5595 18.916 57.3915 18.916C57.1301 18.916 56.8408 18.804 56.5235 18.58C56.2061 18.356 55.9728 18.1227 55.8235 17.88C55.6928 17.656 55.5341 17.4973 55.3475 17.404C55.1608 17.3107 54.9928 17.2173 54.8435 17.124C54.6941 17.068 54.5541 17.0027 54.4235 16.928C54.2928 16.8347 54.1715 16.7133 54.0595 16.564C53.9661 16.4147 53.8915 16.228 53.8355 16.004C53.7795 15.78 53.7608 15.4907 53.7795 15.136C53.2941 15.0427 52.8741 14.7907 52.5195 14.38C52.1835 13.9693 52.0155 13.5493 52.0155 13.12C52.0155 12.9707 52.0435 12.784 52.0995 12.56C52.1368 12.4853 52.1555 12.4107 52.1555 12.336C52.1741 12.2427 52.1928 12.1587 52.2115 12.084C51.6141 11.8787 51.1475 11.5893 50.8115 11.216C50.4941 10.8427 50.3355 10.32 50.3355 9.648C50.3355 9.368 50.3728 9.12533 50.4475 8.92C50.4848 8.82667 50.5128 8.73333 50.5315 8.64C50.5688 8.528 50.5875 8.45333 50.5875 8.416C50.5875 8.34133 50.5315 8.22933 50.4195 8.08C50.3635 7.98667 50.2888 7.884 50.1955 7.772C50.1208 7.64133 50.0835 7.50133 50.0835 7.352C50.0835 6.92267 50.2048 6.568 50.4475 6.288C50.7088 5.98933 51.0541 5.82133 51.4835 5.784H51.8755C51.8755 5.448 51.9875 5.13067 52.2115 4.832C52.4355 4.53333 52.7715 4.36533 53.2195 4.328C53.7608 4.272 54.1808 4.39333 54.4795 4.692C54.7968 4.972 55.0581 5.41067 55.2635 6.008C55.3941 6.008 55.5435 6.05467 55.7115 6.148C55.8981 6.22267 56.0661 6.33467 56.2155 6.484C56.3835 6.61467 56.5235 6.77333 56.6355 6.96C56.7661 7.128 56.8501 7.30533 56.8875 7.492C56.9808 7.86533 56.9901 8.22 56.9155 8.556C56.8408 8.892 56.7101 9.172 56.5235 9.396C56.6541 9.48933 56.8035 9.60133 56.9715 9.732C57.1395 9.844 57.3168 10.04 57.5035 10.32C57.5968 10.096 57.7835 9.91867 58.0635 9.788C58.3435 9.63867 58.5861 9.564 58.7915 9.564C58.7168 8.96667 58.8008 8.42533 59.0435 7.94C59.3048 7.45467 59.7715 7.13733 60.4435 6.988C60.4435 6.82 60.4715 6.652 60.5275 6.484C60.6021 6.29733 60.7048 6.12933 60.8355 5.98C60.9848 5.812 61.1621 5.68133 61.3675 5.588C61.5728 5.476 61.8155 5.42 62.0955 5.42C62.4501 5.42 62.7208 5.49467 62.9075 5.644C63.0941 5.79333 63.2808 6.036 63.4675 6.372C63.9155 6.40933 64.3168 6.512 64.6715 6.68C65.0448 6.848 65.3435 7.08133 65.5675 7.38C65.8101 7.67867 65.9781 8.024 66.0715 8.416C66.1648 8.808 66.1648 9.228 66.0715 9.676C66.3141 9.71333 66.5568 9.82533 66.7995 10.012C67.0421 10.18 67.2568 10.46 67.4435 10.852C67.6301 10.516 67.8168 10.2453 68.0035 10.04C68.1901 9.83467 68.4608 9.65733 68.8155 9.508C68.7221 9.26533 68.6568 9.06 68.6195 8.892C68.5821 8.724 68.5635 8.53733 68.5635 8.332C68.5635 8.01467 68.6288 7.69733 68.7595 7.38C68.8901 7.044 69.1701 6.69867 69.5995 6.344C69.5621 6.10133 69.5715 5.84933 69.6275 5.588C69.6835 5.32667 69.7861 5.084 69.9355 4.86C70.1035 4.636 70.3275 4.45867 70.6075 4.328C70.8875 4.17867 71.2328 4.09467 71.6435 4.076C72.2408 4.05733 72.7821 4.328 73.2675 4.888C73.9395 4.92533 74.5088 5.13067 74.9755 5.504C75.4608 5.85867 75.7035 6.40933 75.7035 7.156C75.7035 7.58533 75.6101 7.95867 75.4235 8.276C75.2555 8.57467 75.0128 8.84533 74.6955 9.088C74.8448 9.368 74.9568 9.648 75.0315 9.928C75.1248 10.208 75.1715 10.5067 75.1715 10.824C75.1715 11.3093 75.0128 11.7013 74.6955 12C74.3781 12.28 73.9861 12.5787 73.5195 12.896C73.5195 13.008 73.5195 13.1013 73.5195 13.176C73.5381 13.2507 73.5568 13.3347 73.5755 13.428C73.5941 13.5213 73.6035 13.596 73.6035 13.652C73.6035 13.708 73.6035 13.7827 73.6035 13.876C73.6035 14.5293 73.4168 15.0147 73.0435 15.332C72.6888 15.6307 72.2315 15.8267 71.6715 15.92L71.6155 15.948C71.5968 16.2093 71.5408 16.4707 71.4475 16.732C71.3728 16.9933 71.2608 17.236 71.1115 17.46C70.9808 17.684 70.8128 17.8707 70.6075 18.02C70.4021 18.1507 70.1595 18.216 69.8795 18.216C69.6368 18.216 69.3941 18.16 69.1515 18.048C68.9275 17.936 68.7408 17.8053 68.5915 17.656ZM85.6931 19.7C85.2638 19.7 84.8531 19.616 84.4611 19.448C84.0691 19.28 83.7611 19.0093 83.5371 18.636C83.3318 18.7853 83.0985 18.888 82.8371 18.944C82.5758 18.9813 82.2305 19 81.8011 19C81.0731 19 80.5131 18.7853 80.1211 18.356C79.7478 17.908 79.5611 17.32 79.5611 16.592C79.5611 16.536 79.5611 16.4707 79.5611 16.396C79.5798 16.3213 79.5891 16.1907 79.5891 16.004C79.0478 15.9107 78.5625 15.668 78.1331 15.276C77.7038 14.8653 77.4891 14.3613 77.4891 13.764C77.4891 13.3347 77.5451 12.98 77.6571 12.7C77.7691 12.42 77.9931 12.1213 78.3291 11.804C78.1798 11.6733 78.0118 11.4867 77.8251 11.244C77.6571 11.0013 77.5638 10.768 77.5451 10.544C77.4891 10.04 77.5731 9.592 77.7971 9.2C78.0398 8.808 78.2825 8.50933 78.5251 8.304C78.1518 8.04267 77.8811 7.688 77.7131 7.24C77.5451 6.77333 77.4611 6.372 77.4611 6.036C77.4611 5.71867 77.5451 5.41067 77.7131 5.112C77.8811 4.81333 78.0958 4.552 78.3571 4.328C78.1331 3.95467 78.0025 3.67467 77.9651 3.488C77.9278 3.30133 77.9091 3.13333 77.9091 2.984C77.9091 2.368 78.0585 1.82667 78.3571 1.36C78.6558 0.893332 79.1038 0.641333 79.7011 0.604C80.0371 0.604 80.2798 0.641333 80.4291 0.715998C80.5971 0.771999 80.7745 0.958666 80.9611 1.276C81.1665 1.18267 81.3905 1.09867 81.6331 1.024C81.8758 0.949333 82.1091 0.911999 82.3331 0.911999C82.7625 0.911999 83.0518 1.024 83.2011 1.248C83.3505 1.45333 83.4438 1.696 83.4811 1.976C83.4998 2.21867 83.4811 2.41467 83.4251 2.564C83.3878 2.69467 83.3505 2.79733 83.3131 2.872C83.6491 3.18933 83.8171 3.55333 83.8171 3.964C83.8171 4.11333 83.7891 4.31867 83.7331 4.58C83.6771 4.82267 83.4998 5.06533 83.2011 5.308C83.5745 5.532 83.8451 5.76533 84.0131 6.008C84.1811 6.25067 84.2651 6.58667 84.2651 7.016C84.2651 7.16533 84.2465 7.296 84.2091 7.408C84.1905 7.52 84.1625 7.65067 84.1251 7.8C84.2371 7.76267 84.3398 7.744 84.4331 7.744C84.5265 7.744 84.6478 7.744 84.7971 7.744C85.2078 7.744 85.5811 7.884 85.9171 8.164C86.2345 7.884 86.5331 7.67867 86.8131 7.548C87.1118 7.41733 87.4758 7.352 87.9051 7.352C88.5585 7.352 89.1185 7.55733 89.5851 7.968C90.0705 8.37867 90.3038 8.92933 90.2851 9.62C90.9198 9.676 91.4518 9.93733 91.8811 10.404C92.3291 10.852 92.5531 11.3933 92.5531 12.028C92.5531 12.4013 92.4971 12.7 92.3851 12.924C92.2731 13.148 92.0678 13.3627 91.7691 13.568V13.596C91.8998 13.8013 92.0118 14.0347 92.1051 14.296C92.1985 14.5573 92.2451 14.8467 92.2451 15.164C92.2451 15.556 92.1705 15.9387 92.0211 16.312C91.8718 16.6853 91.6665 17.012 91.4051 17.292C91.1438 17.572 90.8265 17.8053 90.4531 17.992C90.0985 18.16 89.7065 18.244 89.2771 18.244C89.2211 18.244 89.1465 18.2347 89.0531 18.216C88.9598 18.1973 88.8011 18.16 88.5771 18.104C88.2225 18.608 87.8025 19 87.3171 19.28C86.8318 19.56 86.2905 19.7 85.6931 19.7ZM84.8531 12.952C84.7411 13.12 84.7131 13.2693 84.7691 13.4C84.8251 13.5307 84.9185 13.6427 85.0491 13.736C85.1985 13.8293 85.3571 13.904 85.5251 13.96C85.7118 13.9973 85.8798 14.016 86.0291 14.016C86.2531 14.016 86.4398 13.96 86.5891 13.848C86.7385 13.736 86.8131 13.5493 86.8131 13.288C86.8131 12.9893 86.6825 12.784 86.4211 12.672C86.1598 12.5413 85.8891 12.476 85.6091 12.476C85.2171 12.476 84.9651 12.6347 84.8531 12.952ZM94.8922 18.552C94.8922 18.3467 94.9202 18.188 94.9762 18.076C95.0322 17.964 95.1069 17.8333 95.2002 17.684C94.9389 17.348 94.7522 17.068 94.6402 16.844C94.5282 16.62 94.4722 16.4053 94.4722 16.2C94.4722 15.9947 94.5376 15.7707 94.6682 15.528C94.7989 15.2667 94.9576 15.0613 95.1442 14.912C94.9389 14.632 94.7709 14.324 94.6402 13.988C94.5096 13.6333 94.4349 13.2693 94.4162 12.896C94.3976 12.5227 94.4442 12.1587 94.5562 11.804C94.6682 11.4493 94.8549 11.132 95.1162 10.852C95.0042 10.7587 94.9016 10.6373 94.8082 10.488C94.7149 10.32 94.6589 10.124 94.6402 9.9C94.6216 9.54533 94.7056 9.256 94.8922 9.032C95.0789 8.78933 95.3122 8.59333 95.5922 8.444C95.8909 8.29467 96.2082 8.192 96.5442 8.136C96.8802 8.06133 97.1882 8.024 97.4682 8.024C97.9162 8.024 98.2989 8.11733 98.6162 8.304C98.9522 8.472 99.1389 8.77067 99.1762 9.2C99.4749 9.27467 99.7362 9.38667 99.9602 9.536C100.184 9.68533 100.296 9.94667 100.296 10.32C100.296 10.5627 100.222 10.7867 100.072 10.992C99.9229 11.1973 99.7642 11.412 99.5962 11.636C99.8762 11.748 100.063 11.9067 100.156 12.112C100.25 12.3173 100.296 12.5413 100.296 12.784C100.296 13.0453 100.231 13.2787 100.1 13.484C99.9696 13.6893 99.8296 13.904 99.6802 14.128C99.6802 14.2213 99.7922 14.3333 100.016 14.464C100.184 14.576 100.362 14.7253 100.548 14.912C100.754 15.0987 100.856 15.444 100.856 15.948C100.856 16.4333 100.744 16.7787 100.52 16.984C100.296 17.1707 100.091 17.3107 99.9042 17.404C99.9602 17.5533 100.016 17.6933 100.072 17.824C100.128 17.9547 100.156 18.104 100.156 18.272C100.156 18.5893 100.054 18.8693 99.8482 19.112C99.6429 19.3547 99.3349 19.476 98.9242 19.476C98.6442 19.476 98.3829 19.4387 98.1402 19.364C97.8976 19.308 97.6736 19.2333 97.4682 19.14C97.2069 19.252 96.9736 19.336 96.7682 19.392C96.5816 19.448 96.3576 19.476 96.0962 19.476C95.7602 19.476 95.4709 19.4013 95.2282 19.252C95.0042 19.1027 94.8922 18.8693 94.8922 18.552ZM98.2242 7.184C97.9069 7.184 97.6456 7.13733 97.4402 7.044C97.2349 6.932 97.0296 6.75467 96.8242 6.512C96.7309 6.568 96.5909 6.63333 96.4042 6.708C96.2362 6.78267 96.0402 6.82 95.8162 6.82C95.4429 6.82 95.0976 6.67067 94.7802 6.372C94.4816 6.07333 94.3322 5.73733 94.3322 5.364C94.3322 5.12133 94.3696 4.92533 94.4442 4.776C94.5376 4.62667 94.6589 4.44933 94.8082 4.244C94.7522 4.11333 94.6962 3.98267 94.6402 3.852C94.5842 3.70267 94.5562 3.56267 94.5562 3.432C94.5562 2.94667 94.7242 2.55467 95.0602 2.256C95.3962 1.95733 95.7882 1.808 96.2362 1.808C96.4976 1.808 96.7589 1.84533 97.0202 1.92C97.2816 1.99467 97.4869 2.172 97.6362 2.452C97.9722 2.26533 98.3269 2.172 98.7002 2.172C99.1856 2.172 99.5869 2.312 99.9042 2.592C100.222 2.85333 100.38 3.21733 100.38 3.684C100.38 4.11333 100.306 4.43067 100.156 4.636C100.007 4.82267 99.7736 4.98133 99.4562 5.112C99.5122 5.224 99.5589 5.34533 99.5962 5.476C99.6522 5.588 99.6802 5.7 99.6802 5.812C99.6802 6.18533 99.5496 6.512 99.2882 6.792C99.0269 7.05333 98.6722 7.184 98.2242 7.184ZM110.906 18.804C110.757 18.8973 110.607 18.9907 110.458 19.084C110.309 19.1773 110.141 19.224 109.954 19.224C109.525 19.224 109.179 19.1027 108.918 18.86C108.675 18.6173 108.563 18.1973 108.582 17.6C108.246 17.6933 107.919 17.7307 107.602 17.712C107.303 17.6747 107.033 17.5813 106.79 17.432C106.566 17.2827 106.379 17.068 106.23 16.788C106.081 16.508 106.006 16.172 106.006 15.78C106.006 15.556 106.043 15.3413 106.118 15.136C106.193 14.912 106.314 14.7067 106.482 14.52C106.239 14.464 106.053 14.3613 105.922 14.212C105.81 14.044 105.735 13.8573 105.698 13.652C105.661 13.4093 105.726 13.1573 105.894 12.896C105.595 12.8587 105.362 12.7933 105.194 12.7C105.026 12.6067 104.839 12.448 104.634 12.224C104.223 12.448 103.803 12.5787 103.374 12.616C103.001 12.6533 102.674 12.5693 102.394 12.364C102.114 12.1587 101.974 11.832 101.974 11.384C101.974 11.216 102.021 11.048 102.114 10.88C102.226 10.6933 102.431 10.5253 102.73 10.376C102.637 10.1893 102.571 10.0307 102.534 9.9C102.497 9.76933 102.478 9.61067 102.478 9.424C102.478 9.05067 102.571 8.71467 102.758 8.416C102.945 8.09867 103.253 7.94 103.682 7.94C103.831 7.94 103.981 7.968 104.13 8.024C104.298 8.06133 104.447 8.11733 104.578 8.192C104.746 7.98667 104.895 7.84667 105.026 7.772C105.175 7.69733 105.399 7.64133 105.698 7.604C105.642 7.268 105.623 7.02533 105.642 6.876C105.642 6.72667 105.679 6.58667 105.754 6.456C105.847 6.30667 106.025 6.13867 106.286 5.952C106.118 5.74667 105.969 5.56 105.838 5.392C105.726 5.20533 105.67 4.95333 105.67 4.636C105.67 4.3 105.754 4.01067 105.922 3.768C106.09 3.52533 106.389 3.348 106.818 3.236C106.818 3.16133 106.837 3.04933 106.874 2.9C106.911 2.732 106.986 2.57333 107.098 2.424C107.21 2.256 107.369 2.116 107.574 2.004C107.779 1.892 108.05 1.84533 108.386 1.864C108.647 1.88267 108.853 1.93867 109.002 2.032C109.151 2.12533 109.263 2.23733 109.338 2.368C109.431 2.49867 109.487 2.63867 109.506 2.788C109.525 2.93733 109.543 3.068 109.562 3.18C109.973 3.348 110.309 3.544 110.57 3.768C110.831 3.97333 110.962 4.33733 110.962 4.86C110.962 4.972 110.953 5.07467 110.934 5.168C110.915 5.26133 110.887 5.35467 110.85 5.448C110.775 5.63467 110.738 5.76533 110.738 5.84L110.85 5.924C110.887 5.96133 110.934 6.01733 110.99 6.092C111.046 6.148 111.083 6.21333 111.102 6.288V6.26C111.158 6.372 111.186 6.46533 111.186 6.54C111.186 6.596 111.186 6.67067 111.186 6.764V6.988C111.186 7.1 111.177 7.19333 111.158 7.268C111.139 7.34267 111.111 7.42667 111.074 7.52C111.037 7.576 111.009 7.62267 110.99 7.66C110.971 7.69733 110.962 7.744 110.962 7.8C111.335 7.8 111.625 7.84667 111.83 7.94C112.054 8.01467 112.325 8.192 112.642 8.472C112.754 8.32267 112.885 8.22933 113.034 8.192C113.202 8.136 113.342 8.108 113.454 8.108C113.846 8.108 114.173 8.276 114.434 8.612C114.714 8.92933 114.854 9.27467 114.854 9.648C114.854 9.816 114.779 10.012 114.63 10.236C114.481 10.4413 114.341 10.6093 114.21 10.74C114.229 10.9827 114.229 11.2253 114.21 11.468C114.21 11.7107 114.163 11.9253 114.07 12.112C113.995 12.2987 113.865 12.4573 113.678 12.588C113.51 12.7 113.267 12.756 112.95 12.756C112.539 12.756 112.194 12.588 111.914 12.252C111.709 12.4013 111.475 12.504 111.214 12.56C110.953 12.616 110.691 12.5973 110.43 12.504C110.467 12.5973 110.505 12.756 110.542 12.98C110.598 13.204 110.551 13.3907 110.402 13.54C110.607 13.5773 110.766 13.68 110.878 13.848C110.99 13.9973 111.027 14.2027 110.99 14.464C111.195 14.3707 111.401 14.3053 111.606 14.268C111.83 14.2307 112.073 14.2867 112.334 14.436C112.446 14.1933 112.614 14.0347 112.838 13.96C113.081 13.8853 113.333 13.848 113.594 13.848C113.874 13.848 114.135 13.9227 114.378 14.072C114.639 14.2213 114.807 14.4453 114.882 14.744C114.919 14.8747 114.929 15.0333 114.91 15.22C114.91 15.388 114.863 15.5373 114.77 15.668C115.013 15.892 115.162 16.1253 115.218 16.368C115.274 16.6293 115.265 16.8813 115.19 17.124C115.115 17.348 114.985 17.5533 114.798 17.74C114.63 17.9267 114.415 18.0667 114.154 18.16C113.893 18.2533 113.603 18.2813 113.286 18.244C113.305 18.5053 113.211 18.7667 113.006 19.028C112.819 19.308 112.53 19.448 112.138 19.448C111.653 19.448 111.242 19.2333 110.906 18.804Z" fill="black"/>
<path d="M41.6065 19.056C41.1025 19.056 40.6265 18.9347 40.1785 18.692C39.7491 18.4307 39.3478 18.1413 38.9745 17.824C38.8251 17.824 38.6758 17.852 38.5265 17.908C38.3958 17.9453 38.2371 17.964 38.0505 17.964C37.6211 17.964 37.2291 17.88 36.8745 17.712C36.5198 17.544 36.2118 17.32 35.9505 17.04C35.6891 16.7413 35.4838 16.4053 35.3345 16.032C35.1851 15.6587 35.1105 15.2573 35.1105 14.828C35.1105 14.7347 35.1198 14.6507 35.1385 14.576C35.1571 14.5013 35.1758 14.4173 35.1945 14.324C34.7465 14.156 34.3731 13.876 34.0745 13.484C33.7945 13.092 33.6545 12.6533 33.6545 12.168C33.6545 11.5893 33.7758 11.0853 34.0185 10.656C34.2611 10.208 34.6251 9.88133 35.1105 9.676C34.9985 9.06 35.0265 8.51867 35.1945 8.052C35.3625 7.56667 35.6238 7.17467 35.9785 6.876C36.3331 6.57733 36.7438 6.38133 37.2105 6.288C37.6958 6.176 38.1811 6.18533 38.6665 6.316C38.8718 5.90533 39.1051 5.588 39.3665 5.364C39.6278 5.14 39.8798 4.98133 40.1225 4.888C40.3838 4.79467 40.6171 4.73867 40.8225 4.72C41.0278 4.70133 41.1771 4.692 41.2705 4.692C42.1851 4.692 42.8665 4.888 43.3145 5.28C43.7625 5.65333 44.0798 6.07333 44.2665 6.54C44.6771 6.54 45.0691 6.57733 45.4425 6.652C45.8345 6.72667 46.1798 6.85733 46.4785 7.044C46.7771 7.23067 47.0105 7.492 47.1785 7.828C47.3651 8.14533 47.4585 8.556 47.4585 9.06C47.4585 9.228 47.4398 9.38667 47.4025 9.536C47.3651 9.66667 47.3278 9.79733 47.2905 9.928C47.2531 10.0587 47.2158 10.18 47.1785 10.292C47.1411 10.404 47.1225 10.516 47.1225 10.628C47.1225 10.6653 47.1598 10.712 47.2345 10.768C47.3091 10.824 47.3931 10.8987 47.4865 10.992C47.7291 11.1973 47.9811 11.4587 48.2425 11.776C48.5225 12.0933 48.6625 12.4667 48.6625 12.896C48.6625 13.1947 48.6065 13.456 48.4945 13.68C48.4011 13.8853 48.2705 14.072 48.1025 14.24C47.9531 14.3893 47.7665 14.5293 47.5425 14.66C47.3371 14.772 47.1225 14.884 46.8985 14.996C47.0105 15.276 47.0665 15.5373 47.0665 15.78C47.0665 16.0787 47.0011 16.3493 46.8705 16.592C46.7585 16.8347 46.5905 17.0307 46.3665 17.18C46.1611 17.3293 45.9091 17.4413 45.6105 17.516C45.3305 17.572 45.0318 17.572 44.7145 17.516C44.2665 18.0387 43.8091 18.4307 43.3425 18.692C42.8758 18.9347 42.2971 19.056 41.6065 19.056ZM41.1865 15.08C41.3358 15.248 41.5131 15.3693 41.7185 15.444C41.9238 15.5187 42.1291 15.556 42.3345 15.556C42.6891 15.5187 42.9225 15.444 43.0345 15.332C43.1465 15.2013 43.2025 15.0613 43.2025 14.912C43.2025 14.8 43.1931 14.716 43.1745 14.66C43.1558 14.604 43.0905 14.576 42.9785 14.576C42.9038 14.576 42.8385 14.604 42.7825 14.66C42.7451 14.716 42.7078 14.7627 42.6705 14.8C42.5398 14.9307 42.4278 14.996 42.3345 14.996C41.9611 14.996 41.7278 14.8747 41.6345 14.632C41.5598 14.3707 41.5225 14.0813 41.5225 13.764V13.316C41.6531 13.26 41.7371 13.1853 41.7745 13.092C41.8305 12.9987 41.8585 12.9053 41.8585 12.812C41.8585 12.7187 41.8025 12.6253 41.6905 12.532C41.5971 12.4387 41.4571 12.392 41.2705 12.392C41.0651 12.392 40.8878 12.4293 40.7385 12.504C40.6078 12.56 40.5425 12.6907 40.5425 12.896C40.5425 12.9893 40.5705 13.0733 40.6265 13.148C40.6825 13.204 40.7291 13.26 40.7665 13.316V14.492C40.7665 14.5853 40.6545 14.6693 40.4305 14.744C40.2065 14.8 40.0571 14.828 39.9825 14.828C39.8891 14.828 39.8331 14.8 39.8145 14.744C39.7771 14.7067 39.7398 14.6693 39.7025 14.632C39.6651 14.5947 39.6185 14.576 39.5625 14.576C39.4505 14.576 39.3851 14.604 39.3665 14.66C39.3478 14.716 39.3385 14.772 39.3385 14.828C39.3385 15.0333 39.3945 15.2013 39.5065 15.332C39.6371 15.444 39.7771 15.5 39.9265 15.5C40.1878 15.5 40.4398 15.4533 40.6825 15.36C40.9251 15.2667 41.0931 15.1733 41.1865 15.08ZM38.6665 10.852C38.6665 11.0387 38.6945 11.1693 38.7505 11.244C38.8251 11.3 38.9651 11.328 39.1705 11.328C39.4505 11.328 39.5905 11.1693 39.5905 10.852C39.5905 10.5907 39.4505 10.46 39.1705 10.46C38.9651 10.46 38.8251 10.488 38.7505 10.544C38.6945 10.6 38.6665 10.7027 38.6665 10.852ZM42.4185 11.076C42.4185 11.3373 42.5771 11.468 42.8945 11.468C43.0438 11.468 43.1465 11.4213 43.2025 11.328C43.2585 11.216 43.2865 11.1133 43.2865 11.02C43.2865 10.8707 43.2398 10.768 43.1465 10.712C43.0718 10.656 42.9878 10.628 42.8945 10.628C42.5771 10.628 42.4185 10.7773 42.4185 11.076Z" fill="#FFB84C"/>
</svg>
