<svg width="18" height="18" viewBox="0 0 18 18" fill="none" xmlns="http://www.w3.org/2000/svg">
<g clip-path="url(#clip0_778_12513)">
<path d="M8.04961 3.80663C9.79664 3.59843 11.5638 3.96774 13.0813 4.85816C14.5987 5.74859 15.783 7.11118 16.4534 8.73788C16.5159 8.90626 16.5159 9.09149 16.4534 9.25988C16.1773 9.92791 15.8131 10.556 15.3704 11.1274M10.5629 10.6181C10.1385 11.028 9.57015 11.2548 8.98021 11.2496C8.39026 11.2445 7.82593 11.0079 7.40877 10.5907C6.9916 10.1736 6.75497 9.60922 6.74984 9.01928C6.74471 8.42934 6.9715 7.86098 7.38136 7.43663" stroke="#9E9E9E" stroke-width="1.5" stroke-linecap="round" stroke-linejoin="round"/>
<path d="M13.1091 13.1243C12.1143 13.7136 11.0042 14.082 9.85441 14.2045C8.70459 14.3271 7.54185 14.2008 6.44511 13.8344C5.34837 13.468 4.34329 12.8699 3.49805 12.0808C2.65281 11.2917 1.98721 10.33 1.54639 9.261C1.48389 9.09261 1.48389 8.90739 1.54639 8.739C2.21136 7.12639 3.3814 5.77293 4.88089 4.88175M1.49989 1.5L16.4999 16.5" stroke="#9E9E9E" stroke-width="1.5" stroke-linecap="round" stroke-linejoin="round"/>
</g>
<defs>
<clipPath id="clip0_778_12513">
<rect width="18" height="18" fill="white"/>
</clipPath>
</defs>
</svg>
