<svg width="390" height="246" viewBox="0 0 390 246" fill="none" xmlns="http://www.w3.org/2000/svg">
<rect width="390" height="246" fill="white"/>
<path d="M35.0117 39.5332V41.1152H28.7012V46.5469H26.7676V41.1152H20.5273V39.5332H35.0117ZM33.6758 31.5703V33.1172H28.9121C29.0264 34.8574 31.1182 36.5273 34.2559 36.9316L33.5527 38.4609C30.8457 38.083 28.7363 36.8438 27.7695 35.1211C26.8027 36.8438 24.6934 38.083 22.0215 38.4609L21.2832 36.9316C24.4033 36.5273 26.4951 34.8574 26.6445 33.1172H21.8633V31.5703H33.6758ZM48.6172 30.6738V35.2441H50.832V36.8789H48.6172V42.1348H46.6309V30.6738H48.6172ZM44.293 31.8867C44.293 36.1055 41.5508 39.1113 36.8398 40.4824L36.0312 38.9355C39.6611 37.8896 41.8232 35.9121 42.166 33.4863H36.6992V31.8867H44.293ZM49.2148 44.666V46.248H38.4043V40.957H40.3906V44.666H49.2148ZM68.7266 31.2188V35.7363H59.6035V37.3184H69.0781V38.8828H57.6348V34.2598H66.7227V32.8008H57.5996V31.2188H68.7266ZM70.4141 40.2363V41.8008H64.1035V46.582H62.1523V41.8008H55.8945V40.2363H70.4141ZM84.7051 30.6914V42.4512H82.7363V30.6914H84.7051ZM85.1445 44.666V46.248H74.1934V41.4141H76.1621V44.666H85.1445ZM80.0293 31.9043V33.4688H74.334V35.209H79.5723V36.7207H74.334V38.4961C77.3047 38.4961 79.1152 38.4521 81.207 38.1094L81.4004 39.6211C79.1152 40.0254 77.1289 40.0781 73.7012 40.0781H72.3477V31.9043H80.0293ZM96.0957 31.3594C98.416 31.3594 100.068 32.6426 100.086 34.5586C100.068 36.1318 98.8818 37.3184 97.1152 37.6523V38.9355C98.4336 38.8652 99.7607 38.7422 101 38.5664L101.158 39.9902C97.8535 40.5879 94.1621 40.6406 91.4727 40.6406L91.2617 39.0762C92.4043 39.085 93.7402 39.0762 95.1465 39.0234V37.6523C93.3271 37.3535 92.1055 36.1582 92.123 34.5586C92.1055 32.6426 93.7578 31.3594 96.0957 31.3594ZM96.0957 32.8535C94.8301 32.8535 93.9336 33.4863 93.9512 34.5586C93.9336 35.5957 94.8301 36.2461 96.0957 36.2637C97.3613 36.2461 98.2227 35.5957 98.2402 34.5586C98.2227 33.4863 97.3613 32.8535 96.0957 32.8535ZM103.883 30.6914V35.8242H106.027V37.4414H103.883V42.8203H101.932V30.6914H103.883ZM104.445 44.6484V46.2305H93.4414V41.748H95.3926V44.6484H104.445ZM121.373 43.1016V44.7188H106.854V43.1016H110.703V40.4824H108.576V35.2969H117.717V33.3457H108.541V31.7637H119.65V36.8613H110.527V38.9004H120.02V40.4824H117.699V43.1016H121.373ZM112.602 43.1016H115.783V40.4824H112.602V43.1016ZM129.635 30.832C133.256 30.832 135.348 31.7988 135.365 33.5566C135.348 35.332 133.256 36.2812 129.635 36.2988C126.014 36.2812 123.904 35.332 123.904 33.5566C123.904 31.7988 126.014 30.832 129.635 30.832ZM129.635 32.291C127.209 32.291 125.943 32.7305 125.961 33.5566C125.943 34.4355 127.209 34.8398 129.635 34.8574C132.096 34.8398 133.344 34.4355 133.344 33.5566C133.344 32.7305 132.096 32.291 129.635 32.291ZM136.895 37.0547V38.6016H133.133V39.8672H135.084V43.752H126.049V44.9297H135.523V46.4238H124.133V42.3633H133.168V41.3086H124.115V39.8672H126.154V38.6016H122.41V37.0547H136.895ZM128.088 39.8672H131.182V38.6016H128.088V39.8672Z" fill="#222222"/>
<path d="M30.543 203L34.3281 195.688V195.617H29.957V194.516H35.6641V195.664L31.8906 203H30.543ZM36.332 203.082C35.875 203.082 35.4883 202.707 35.5 202.25C35.4883 201.793 35.875 201.418 36.332 201.418C36.7773 201.418 37.1641 201.793 37.1641 202.25C37.1641 202.707 36.7773 203.082 36.332 203.082ZM38.6641 203V202.062L41.6055 199.098C42.5312 198.125 43 197.586 43 196.848C43 196.016 42.3203 195.477 41.4297 195.477C40.4922 195.477 39.8828 196.074 39.8828 196.977H38.6641C38.6523 195.43 39.8359 194.398 41.4531 194.398C43.0938 194.398 44.2188 195.43 44.2305 196.812C44.2188 197.762 43.7734 198.512 42.1797 200.082L40.457 201.828V201.898H44.3711V203H38.6641ZM49.0234 194.516V203H47.7227V195.805H47.6758L45.6484 197.129V195.898L47.7578 194.516H49.0234Z" fill="#222222"/>
<path d="M77.543 203L81.3281 195.688V195.617H76.957V194.516H82.6641V195.664L78.8906 203H77.543ZM83.332 203.082C82.875 203.082 82.4883 202.707 82.5 202.25C82.4883 201.793 82.875 201.418 83.332 201.418C83.7773 201.418 84.1641 201.793 84.1641 202.25C84.1641 202.707 83.7773 203.082 83.332 203.082ZM85.6641 203V202.062L88.6055 199.098C89.5312 198.125 90 197.586 90 196.848C90 196.016 89.3203 195.477 88.4297 195.477C87.4922 195.477 86.8828 196.074 86.8828 196.977H85.6641C85.6523 195.43 86.8359 194.398 88.4531 194.398C90.0938 194.398 91.2188 195.43 91.2305 196.812C91.2188 197.762 90.7734 198.512 89.1797 200.082L87.457 201.828V201.898H91.3711V203H85.6641ZM92.8008 203V202.062L95.7422 199.098C96.668 198.125 97.1367 197.586 97.1367 196.848C97.1367 196.016 96.457 195.477 95.5664 195.477C94.6289 195.477 94.0195 196.074 94.0195 196.977H92.8008C92.7891 195.43 93.9727 194.398 95.5898 194.398C97.2305 194.398 98.3555 195.43 98.3672 196.812C98.3555 197.762 97.9102 198.512 96.3164 200.082L94.5938 201.828V201.898H98.5078V203H92.8008Z" fill="#222222"/>
<path d="M126.543 203L130.328 195.688V195.617H125.957V194.516H131.664V195.664L127.891 203H126.543ZM132.332 203.082C131.875 203.082 131.488 202.707 131.5 202.25C131.488 201.793 131.875 201.418 132.332 201.418C132.777 201.418 133.164 201.793 133.164 202.25C133.164 202.707 132.777 203.082 132.332 203.082ZM134.664 203V202.062L137.605 199.098C138.531 198.125 139 197.586 139 196.848C139 196.016 138.32 195.477 137.43 195.477C136.492 195.477 135.883 196.074 135.883 196.977H134.664C134.652 195.43 135.836 194.398 137.453 194.398C139.094 194.398 140.219 195.43 140.23 196.812C140.219 197.762 139.773 198.512 138.18 200.082L136.457 201.828V201.898H140.371V203H134.664ZM144.812 203.117C143.055 203.117 141.801 202.168 141.754 200.785H143.066C143.113 201.535 143.852 202.004 144.801 202.004C145.82 202.004 146.57 201.441 146.57 200.621C146.57 199.789 145.867 199.18 144.66 199.18H143.934V198.125H144.66C145.621 198.125 146.301 197.586 146.301 196.777C146.301 196.004 145.727 195.477 144.824 195.477C143.969 195.477 143.219 195.945 143.184 196.719H141.941C141.977 195.336 143.254 194.398 144.836 194.398C146.5 194.398 147.555 195.453 147.543 196.707C147.555 197.668 146.957 198.371 146.043 198.594V198.652C147.203 198.816 147.871 199.59 147.871 200.668C147.871 202.086 146.57 203.117 144.812 203.117Z" fill="#222222"/>
<path d="M176.543 203L180.328 195.688V195.617H175.957V194.516H181.664V195.664L177.891 203H176.543ZM182.332 203.082C181.875 203.082 181.488 202.707 181.5 202.25C181.488 201.793 181.875 201.418 182.332 201.418C182.777 201.418 183.164 201.793 183.164 202.25C183.164 202.707 182.777 203.082 182.332 203.082ZM184.664 203V202.062L187.605 199.098C188.531 198.125 189 197.586 189 196.848C189 196.016 188.32 195.477 187.43 195.477C186.492 195.477 185.883 196.074 185.883 196.977H184.664C184.652 195.43 185.836 194.398 187.453 194.398C189.094 194.398 190.219 195.43 190.23 196.812C190.219 197.762 189.773 198.512 188.18 200.082L186.457 201.828V201.898H190.371V203H184.664ZM191.426 201.348V200.305L195.176 194.516H196.77V200.258H197.93V201.348H196.77V203H195.551V201.348H191.426ZM192.785 200.258H195.551V196.051H195.457L192.785 200.188V200.258Z" fill="#222222"/>
<path d="M225.543 203L229.328 195.688V195.617H224.957V194.516H230.664V195.664L226.891 203H225.543ZM231.332 203.082C230.875 203.082 230.488 202.707 230.5 202.25C230.488 201.793 230.875 201.418 231.332 201.418C231.777 201.418 232.164 201.793 232.164 202.25C232.164 202.707 231.777 203.082 231.332 203.082ZM233.664 203V202.062L236.605 199.098C237.531 198.125 238 197.586 238 196.848C238 196.016 237.32 195.477 236.43 195.477C235.492 195.477 234.883 196.074 234.883 196.977H233.664C233.652 195.43 234.836 194.398 236.453 194.398C238.094 194.398 239.219 195.43 239.23 196.812C239.219 197.762 238.773 198.512 237.18 200.082L235.457 201.828V201.898H239.371V203H233.664ZM243.684 203.117C242.078 203.117 240.871 202.133 240.812 200.785H242.066C242.137 201.512 242.828 202.039 243.684 202.039C244.715 202.039 245.453 201.289 245.453 200.281C245.453 199.25 244.691 198.5 243.625 198.488C242.945 198.488 242.43 198.711 242.137 199.238H240.918L241.469 194.516H246.273V195.617H242.535L242.254 197.996H242.336C242.688 197.656 243.285 197.422 243.93 197.422C245.523 197.422 246.707 198.605 246.707 200.246C246.707 201.922 245.453 203.117 243.684 203.117Z" fill="#222222"/>
<path d="M274.543 203L278.328 195.688V195.617H273.957V194.516H279.664V195.664L275.891 203H274.543ZM280.332 203.082C279.875 203.082 279.488 202.707 279.5 202.25C279.488 201.793 279.875 201.418 280.332 201.418C280.777 201.418 281.164 201.793 281.164 202.25C281.164 202.707 280.777 203.082 280.332 203.082ZM282.664 203V202.062L285.605 199.098C286.531 198.125 287 197.586 287 196.848C287 196.016 286.32 195.477 285.43 195.477C284.492 195.477 283.883 196.074 283.883 196.977H282.664C282.652 195.43 283.836 194.398 285.453 194.398C287.094 194.398 288.219 195.43 288.23 196.812C288.219 197.762 287.773 198.512 286.18 200.082L284.457 201.828V201.898H288.371V203H282.664ZM292.871 203.117C291.301 203.105 289.66 202.18 289.66 199.039C289.66 196.086 290.938 194.398 292.977 194.398C294.535 194.398 295.625 195.371 295.824 196.719H294.547C294.383 196.027 293.832 195.523 292.977 195.523C291.664 195.523 290.902 196.672 290.902 198.582H290.996C291.453 197.867 292.25 197.434 293.176 197.434C294.688 197.434 295.906 198.594 295.906 200.223C295.906 201.863 294.699 203.129 292.871 203.117ZM292.859 202.039C293.891 202.039 294.652 201.242 294.652 200.246C294.652 199.273 293.914 198.488 292.895 198.488C291.852 198.488 291.066 199.309 291.055 200.258C291.066 201.195 291.816 202.039 292.859 202.039Z" fill="#222222"/>
<path d="M324.543 203L328.328 195.688V195.617H323.957V194.516H329.664V195.664L325.891 203H324.543ZM330.332 203.082C329.875 203.082 329.488 202.707 329.5 202.25C329.488 201.793 329.875 201.418 330.332 201.418C330.777 201.418 331.164 201.793 331.164 202.25C331.164 202.707 330.777 203.082 330.332 203.082ZM332.664 203V202.062L335.605 199.098C336.531 198.125 337 197.586 337 196.848C337 196.016 336.32 195.477 335.43 195.477C334.492 195.477 333.883 196.074 333.883 196.977H332.664C332.652 195.43 333.836 194.398 335.453 194.398C337.094 194.398 338.219 195.43 338.23 196.812C338.219 197.762 337.773 198.512 336.18 200.082L334.457 201.828V201.898H338.371V203H332.664ZM340.094 203L343.879 195.688V195.617H339.508V194.516H345.215V195.664L341.441 203H340.094Z" fill="#222222"/>
<rect x="34" y="122" width="12" height="59" rx="3" fill="#FFB84C"/>
<rect x="83" y="132" width="12" height="49" rx="3" fill="#FFB84C"/>
<rect x="132" y="151" width="12" height="30" rx="3" fill="#FFB84C"/>
<rect x="181" y="101" width="12" height="80" rx="3" fill="#FFB84C"/>
<rect x="230" y="82" width="12" height="99" rx="3" fill="#FFB84C"/>
<rect x="279" y="91" width="12" height="90" rx="3" fill="#FFB84C"/>
<rect x="328" y="122" width="12" height="59" rx="3" fill="#FFB84C"/>
<path d="M366.531 155L366.523 154.484L368.453 152.453C369.125 151.742 369.445 151.359 369.445 150.836C369.445 150.258 368.953 149.875 368.32 149.875C367.648 149.875 367.219 150.305 367.219 150.938H366.555C366.547 149.938 367.32 149.266 368.344 149.266C369.367 149.266 370.102 149.953 370.102 150.836C370.102 151.469 369.805 151.961 368.805 152.992L367.508 154.328V154.375H370.203V155H366.531ZM373.078 155.078C371.82 155.078 371.102 154.023 371.102 152.172C371.102 150.336 371.836 149.266 373.078 149.266C374.32 149.266 375.055 150.336 375.055 152.172C375.055 154.023 374.328 155.078 373.078 155.078ZM373.078 154.453C373.891 154.453 374.367 153.633 374.367 152.172C374.367 150.711 373.891 149.875 373.078 149.875C372.266 149.875 371.781 150.711 371.781 152.172C371.781 153.633 372.258 154.453 373.078 154.453Z" fill="#9E9E9E"/>
<path d="M368.383 179.078C367.125 179.078 366.406 178.023 366.406 176.172C366.406 174.336 367.141 173.266 368.383 173.266C369.625 173.266 370.359 174.336 370.359 176.172C370.359 178.023 369.633 179.078 368.383 179.078ZM368.383 178.453C369.195 178.453 369.672 177.633 369.672 176.172C369.672 174.711 369.195 173.875 368.383 173.875C367.57 173.875 367.086 174.711 367.086 176.172C367.086 177.633 367.562 178.453 368.383 178.453Z" fill="#9E9E9E"/>
<path d="M366.391 130.844V130.266L368.938 126.344H369.805V130.227H370.594V130.844H369.805V132H369.133V130.844H366.391ZM367.148 130.227H369.133V127.234H369.062L367.148 130.18V130.227ZM373.375 132.078C372.117 132.078 371.398 131.023 371.398 129.172C371.398 127.336 372.133 126.266 373.375 126.266C374.617 126.266 375.352 127.336 375.352 129.172C375.352 131.023 374.625 132.078 373.375 132.078ZM373.375 131.453C374.188 131.453 374.664 130.633 374.664 129.172C374.664 127.711 374.188 126.875 373.375 126.875C372.562 126.875 372.078 127.711 372.078 129.172C372.078 130.633 372.555 131.453 373.375 131.453Z" fill="#9E9E9E"/>
<path d="M368.5 110.078C367.516 110.062 366.438 109.484 366.438 107.391C366.438 105.391 367.258 104.266 368.586 104.266C369.578 104.266 370.273 104.875 370.422 105.766H369.727C369.594 105.266 369.219 104.891 368.586 104.891C367.656 104.891 367.102 105.688 367.102 107.047H367.172C367.5 106.578 368.016 106.297 368.625 106.297C369.633 106.297 370.469 107.078 370.469 108.172C370.469 109.234 369.688 110.086 368.5 110.078ZM368.5 109.461C369.234 109.461 369.781 108.883 369.789 108.18C369.781 107.484 369.258 106.914 368.516 106.914C367.773 106.914 367.203 107.516 367.195 108.188C367.195 108.852 367.742 109.461 368.5 109.461ZM373.289 110.078C372.031 110.078 371.312 109.023 371.312 107.172C371.312 105.336 372.047 104.266 373.289 104.266C374.531 104.266 375.266 105.336 375.266 107.172C375.266 109.023 374.539 110.078 373.289 110.078ZM373.289 109.453C374.102 109.453 374.578 108.633 374.578 107.172C374.578 105.711 374.102 104.875 373.289 104.875C372.477 104.875 371.992 105.711 371.992 107.172C371.992 108.633 372.469 109.453 373.289 109.453Z" fill="#9E9E9E"/>
<path d="M368.422 88.0781C367.234 88.0781 366.406 87.4219 366.414 86.5C366.406 85.7656 366.914 85.1641 367.562 85.0625V85.0312C367 84.8984 366.633 84.3828 366.633 83.7656C366.633 82.8984 367.391 82.2656 368.422 82.2656C369.453 82.2656 370.211 82.8984 370.219 83.7656C370.211 84.3828 369.836 84.8984 369.281 85.0312V85.0625C369.922 85.1641 370.43 85.7656 370.438 86.5C370.43 87.4219 369.602 88.0781 368.422 88.0781ZM368.422 87.4609C369.234 87.4609 369.734 87.0547 369.734 86.4609C369.734 85.8359 369.18 85.375 368.422 85.375C367.664 85.375 367.102 85.8359 367.117 86.4609C367.102 87.0547 367.609 87.4609 368.422 87.4609ZM368.422 84.7812C369.062 84.7812 369.531 84.3906 369.531 83.8203C369.531 83.2578 369.086 82.875 368.422 82.875C367.75 82.875 367.312 83.2578 367.312 83.8203C367.312 84.3906 367.773 84.7812 368.422 84.7812ZM373.234 88.0781C371.977 88.0781 371.258 87.0234 371.258 85.1719C371.258 83.3359 371.992 82.2656 373.234 82.2656C374.477 82.2656 375.211 83.3359 375.211 85.1719C375.211 87.0234 374.484 88.0781 373.234 88.0781ZM373.234 87.4531C374.047 87.4531 374.523 86.6328 374.523 85.1719C374.523 83.7109 374.047 82.875 373.234 82.875C372.422 82.875 371.938 83.7109 371.938 85.1719C371.938 86.6328 372.414 87.4531 373.234 87.4531Z" fill="#9E9E9E"/>
<path d="M368.531 62.3438V68H367.82V63.0781H367.789L366.414 63.9922V63.2812L367.82 62.3438H368.531ZM371.891 68.0781C370.633 68.0781 369.914 67.0234 369.914 65.1719C369.914 63.3359 370.648 62.2656 371.891 62.2656C373.133 62.2656 373.867 63.3359 373.867 65.1719C373.867 67.0234 373.141 68.0781 371.891 68.0781ZM371.891 67.4531C372.703 67.4531 373.18 66.6328 373.18 65.1719C373.18 63.7109 372.703 62.875 371.891 62.875C371.078 62.875 370.594 63.7109 370.594 65.1719C370.594 66.6328 371.07 67.4531 371.891 67.4531ZM376.656 68.0781C375.398 68.0781 374.68 67.0234 374.68 65.1719C374.68 63.3359 375.414 62.2656 376.656 62.2656C377.898 62.2656 378.633 63.3359 378.633 65.1719C378.633 67.0234 377.906 68.0781 376.656 68.0781ZM376.656 67.4531C377.469 67.4531 377.945 66.6328 377.945 65.1719C377.945 63.7109 377.469 62.875 376.656 62.875C375.844 62.875 375.359 63.7109 375.359 65.1719C375.359 66.6328 375.836 67.4531 376.656 67.4531Z" fill="#9E9E9E"/>
</svg>
